<svg id="eQfc8FMO6Ud1" xmlns="http://www.w3.org/2000/svg" xmlns:xlink="http://www.w3.org/1999/xlink" viewBox="0 0 256 256" shape-rendering="geometricPrecision" text-rendering="geometricPrecision" project-id="14dd3b89d2de49ed99d5115bb059bd60" export-id="30ebe4451a6047668eebee7a666e7a56" cached="false"><defs><linearGradient id="eQfc8FMO6Ud4-fill" x1="0.501746" y1="0.00914" x2="0.501746" y2="1.01886" spreadMethod="pad" gradientUnits="objectBoundingBox" gradientTransform="translate(0 0)"><stop id="eQfc8FMO6Ud4-fill-0" offset="2%" stop-color="#fb9d03"/><stop id="eQfc8FMO6Ud4-fill-1" offset="100%" stop-color="#e8cb90"/></linearGradient><linearGradient id="eQfc8FMO6Ud8-fill" x1="0.501746" y1="0.00914" x2="0.501746" y2="1.01886" spreadMethod="pad" gradientUnits="objectBoundingBox" gradientTransform="translate(0 0)"><stop id="eQfc8FMO6Ud8-fill-0" offset="2%" stop-color="#fb9d03"/><stop id="eQfc8FMO6Ud8-fill-1" offset="100%" stop-color="#e8cb90"/></linearGradient><linearGradient id="eQfc8FMO6Ud14-fill" x1="0.345753" y1="0.008544" x2="0.825287" y2="0.938964" spreadMethod="pad" gradientUnits="objectBoundingBox" gradientTransform="translate(0 0)"><stop id="eQfc8FMO6Ud14-fill-0" offset="0%" stop-color="#b16900"/><stop id="eQfc8FMO6Ud14-fill-1" offset="100%" stop-color="#e1bd7b"/></linearGradient></defs><g transform="matrix(1.20809 0 0 1.195927-20.469991-18.797117)"><g><ellipse style="mix-blend-mode:darken" rx="64.97947" ry="41.727013" transform="matrix(1.428925 0 0 1.281312 128 128)" fill="url(#eQfc8FMO6Ud4-fill)" stroke="#000"/><line x1="-0.200841" y1="-14.67587" x2="0.239795" y2="15.337227" transform="translate(115.085452 91.880981)" fill="none" stroke="#b16900" stroke-width="5" stroke-linecap="round"/><line x1="-0.200841" y1="-14.67587" x2="0.239795" y2="15.337227" transform="translate(127.760205 91.026506)" fill="none" stroke="#b16900" stroke-width="5" stroke-linecap="round"/><line x1="-0.200841" y1="-14.67587" x2="0.239795" y2="15.337227" transform="translate(141.977041 91.880981)" fill="none" stroke="#b16900" stroke-width="5" stroke-linecap="round"/><ellipse style="mix-blend-mode:darken" rx="64.97947" ry="41.727013" transform="matrix(1.428925 0 0 1.281312 128 128)" fill="url(#eQfc8FMO6Ud8-fill)" stroke="#000"/></g><g><rect width="8.992775" height="46.37074" rx="0" ry="0" transform="matrix(.773394 0.633925-.633925 0.773394 217.724117 86.436398)" fill="#d5d0c6" stroke="#000"/><ellipse rx="25.6" ry="25.6" transform="matrix(.163141 0 0 0.160838 218.734761 87.239731)" fill="#d5d0c6" stroke="#000" stroke-width="2"/><ellipse rx="25.6" ry="25.6" transform="matrix(.163141 0 0 0.160838 224.161799 91.357184)" fill="#d5d0c6" stroke="#000" stroke-width="2"/><rect width="8.992775" height="46.37074" rx="0" ry="0" transform="matrix(.773394 0.633925-.646486 0.788719 219.433696 84.325045)" fill="#d5d0c6"/><ellipse rx="12.595512" ry="23.426049" transform="matrix(1.296872 0.89542-.696546 1.008836 192.026985 128)" fill="url(#eQfc8FMO6Ud14-fill)" stroke="#000" stroke-width="0.5"/></g><g transform="matrix(.887762 0 0 0.930201 5.645412 6.664034)"><ellipse rx="42.618686" ry="31.90172" transform="matrix(.859694 0 0 1 50.298583 95.474637)" fill="#fd9d00" stroke="#000"/><g><polygon points="0,-25.6 22.17025,12.8 -22.17025,12.8 0,-25.6" transform="matrix(.399811 0.002241-.002774 0.494824 34.692227 67.495214)" fill="#fd9d00" stroke="#000"/><polygon points="0,-25.6 22.17025,12.8 -22.17025,12.8 0,-25.6" transform="matrix(.399811 0.002241-.002774 0.494824 63.81119 67.395844)" fill="#fd9d00" stroke="#000"/></g><ellipse rx="42.618686" ry="31.90172" transform="matrix(.859694 0 0 1 50.298583 95.474637)" fill="#ffb947"/><g transform="translate(5.487705-.704344)"><g><line x1="-3.129413" y1="4.895184" x2="3.129413" y2="-4.895184" transform="matrix(.859643 0 0 0.89818 32.019799 79.429862)" fill="none" stroke="#000" stroke-linecap="round"/><line x1="-3.129413" y1="4.895184" x2="3.129413" y2="-4.895184" transform="matrix(.859643 0 0-.89818 37.400155 79.429862)" fill="none" stroke="#000" stroke-linecap="round"/></g><g transform="translate(20.200966 0.000002)"><line x1="-3.129413" y1="4.895184" x2="3.129413" y2="-4.895184" transform="matrix(.859643 0 0 0.89818 32.019799 79.429862)" fill="none" stroke="#000" stroke-linecap="round"/><line x1="-3.129413" y1="4.895184" x2="3.129413" y2="-4.895184" transform="matrix(.859643 0 0-.89818 37.400155 79.429862)" fill="none" stroke="#000" stroke-linecap="round"/></g></g><g transform="translate(3.725645 3.918033)"><g transform="matrix(-1 0 0-1 89.077288 204.655766)"><line x1="-7.048233" y1="-4.517673" x2="7.048233" y2="4.517673" transform="matrix(-1 0 0 1 29.807447 106.561648)" fill="none" stroke="#000" stroke-linejoin="bevel"/><line x1="7.048233" y1="0" x2="-7.048233" y2="0" transform="translate(29.807447 101.963909)" fill="none" stroke="#000"/><line x1="-7.048233" y1="-4.517673" x2="7.048233" y2="4.517673" transform="translate(29.807447 97.526302)" fill="none" stroke="#000" stroke-linejoin="bevel"/></g><g transform="translate(4.068592 0.647885)"><line x1="-7.048233" y1="-4.517673" x2="7.048233" y2="4.517673" transform="matrix(-1 0 0 1 29.807447 106.561648)" fill="none" stroke="#000" stroke-linejoin="bevel"/><line x1="7.048233" y1="0" x2="-7.048233" y2="0" transform="translate(29.807447 101.963909)" fill="none" stroke="#000"/><line x1="-7.048233" y1="-4.517673" x2="7.048233" y2="4.517673" transform="translate(29.807447 97.526302)" fill="none" stroke="#000" stroke-linejoin="bevel"/></g></g></g></g></svg>
